<svg width="192" height="29" viewBox="0 0 192 29" fill="none" xmlns="http://www.w3.org/2000/svg">
<path d="M10.98 28.08C9.828 28.08 9.072 27.996 8.712 27.828C8.352 27.66 8.1 27.372 7.956 26.964L0 5.004C0 4.548 0.852 4.02 2.556 3.42C4.284 2.82 6.024 2.52 7.776 2.52C10.032 2.52 11.232 3.228 11.376 4.644L12.6 16.056H13.104L14.112 4.644C14.232 3.228 15.852 2.52 18.972 2.52C20.172 2.52 20.976 2.688 21.384 3.024C21.792 3.336 22.02 3.756 22.068 4.284L23.256 16.056H23.76L24.696 4.644C24.768 3.948 25.584 3.42 27.144 3.06C28.728 2.7 30.288 2.52 31.824 2.52C33.384 2.52 34.44 2.748 34.992 3.204C35.568 3.66 35.856 4.14 35.856 4.644L28.152 26.964C27.888 27.708 26.112 28.08 22.824 28.08C21.84 28.08 21.18 27.996 20.844 27.828C20.508 27.66 20.28 27.372 20.16 26.964L18.288 20.7H17.856L15.948 26.964C15.732 27.708 14.076 28.08 10.98 28.08Z" fill="white"/>
<path d="M46.5896 19.944C46.5896 21.504 47.3336 22.284 48.8216 22.284C49.6856 22.284 50.8136 21.996 52.2056 21.42C53.5976 20.82 54.3296 20.52 54.4016 20.52C54.8576 20.52 55.4576 21.204 56.2016 22.572C56.9456 23.94 57.3176 24.948 57.3176 25.596C57.3176 26.532 56.3576 27.24 54.4376 27.72C52.5176 28.2 50.6336 28.44 48.7856 28.44C46.9616 28.44 45.4256 28.296 44.1776 28.008C42.9536 27.72 41.9456 27.36 41.1536 26.928C40.3856 26.472 39.7016 25.92 39.1016 25.272C38.5256 24.624 38.0936 24.012 37.8056 23.436C37.5176 22.836 37.2896 22.176 37.1216 21.456C36.8816 20.4 36.7616 19.308 36.7616 18.18C36.7616 13.812 37.9016 10.8 40.1816 9.144C41.3096 8.304 42.5696 7.716 43.9616 7.38C45.3536 7.044 46.9976 6.876 48.8936 6.876C54.9656 6.876 58.0016 8.988 58.0016 13.212C58.0016 17.7 54.5936 19.944 47.7776 19.944H46.5896ZM46.5176 14.688V17.064C47.2136 17.064 47.7776 16.788 48.2096 16.236C48.6656 15.684 48.8936 15.012 48.8936 14.22C48.8936 12.78 48.5216 12.06 47.7776 12.06C46.9376 12.06 46.5176 12.936 46.5176 14.688Z" fill="white"/>
<path d="M69.528 1.656V27.216C69.528 27.48 68.844 27.696 67.476 27.864C66.108 28.008 64.692 28.08 63.228 28.08C61.788 28.08 60.852 28.02 60.42 27.9C60.012 27.756 59.808 27.528 59.808 27.216V2.304C59.808 1.776 60.48 1.26 61.824 0.755999C63.192 0.252 64.656 0 66.216 0C68.424 0 69.528 0.552 69.528 1.656Z" fill="white"/>
<path d="M81.4215 1.656V27.216C81.4215 27.48 80.7375 27.696 79.3695 27.864C78.0015 28.008 76.5855 28.08 75.1215 28.08C73.6815 28.08 72.7455 28.02 72.3135 27.9C71.9055 27.756 71.7015 27.528 71.7015 27.216V2.304C71.7015 1.776 72.3735 1.26 73.7175 0.755999C75.0855 0.252 76.5495 0 78.1095 0C80.3175 0 81.4215 0.552 81.4215 1.656Z" fill="white"/>
<path d="M99.075 27.216C99.075 27.48 98.331 27.696 96.843 27.864C95.379 28.008 93.903 28.08 92.415 28.08C90.951 28.08 90.015 28.02 89.607 27.9C89.223 27.756 89.031 27.528 89.031 27.216V11.736H84.027C83.763 11.736 83.535 11.4 83.343 10.728C83.151 10.056 83.055 9.06 83.055 7.74C83.055 6.396 83.199 5.196 83.487 4.14C83.775 3.06 84.159 2.52 84.639 2.52H104.115C104.475 2.52 104.715 2.856 104.835 3.528C104.979 4.2 105.051 5.172 105.051 6.444C105.051 7.716 104.919 8.916 104.655 10.044C104.391 11.172 104.031 11.736 103.575 11.736H99.075V27.216Z" fill="white"/>
<path d="M116.423 16.704V27.216C116.423 27.48 115.739 27.696 114.371 27.864C113.027 28.008 111.623 28.08 110.159 28.08C108.719 28.08 107.783 28.02 107.351 27.9C106.919 27.756 106.703 27.528 106.703 27.216V9.468C106.703 9.012 107.363 8.52 108.683 7.992C110.027 7.464 111.479 7.2 113.039 7.2C114.623 7.2 115.511 7.632 115.703 8.496L116.063 10.152H116.315C116.651 9.24 117.455 8.472 118.727 7.848C119.999 7.2 121.271 6.876 122.543 6.876C123.815 6.876 124.703 7.08 125.207 7.488C125.735 7.896 125.999 8.424 125.999 9.072C125.999 9.696 125.951 10.5 125.855 11.484C125.759 12.468 125.519 13.536 125.135 14.688C124.775 15.84 124.295 16.416 123.695 16.416C123.455 16.416 122.699 16.236 121.427 15.876C120.155 15.516 119.099 15.336 118.259 15.336C117.443 15.336 116.927 15.456 116.711 15.696C116.519 15.936 116.423 16.272 116.423 16.704Z" fill="white"/>
<path d="M155.665 27.468C155.089 27.204 154.465 26.808 153.793 26.28C153.145 25.752 152.605 25.128 152.173 24.408C151.165 22.68 150.661 20.424 150.661 17.64C150.661 15.912 150.937 14.376 151.489 13.032C152.041 11.664 152.713 10.608 153.505 9.864C154.297 9.12 155.209 8.508 156.241 8.028C157.897 7.26 159.553 6.876 161.209 6.876C163.993 6.876 165.925 7.092 167.005 7.524C168.109 7.956 168.661 8.688 168.661 9.72C168.661 10.752 168.469 11.856 168.085 13.032C167.725 14.184 167.245 14.76 166.645 14.76C166.453 14.76 165.865 14.556 164.881 14.148C163.921 13.74 163.081 13.536 162.361 13.536C161.665 13.536 161.125 13.824 160.741 14.4C160.381 14.952 160.201 16.044 160.201 17.676C160.201 19.284 160.369 20.388 160.705 20.988C161.041 21.564 161.557 21.852 162.253 21.852C162.973 21.852 163.861 21.612 164.917 21.132C165.973 20.652 166.561 20.412 166.681 20.412C167.137 20.412 167.569 20.952 167.977 22.032C168.409 23.112 168.625 24.072 168.625 24.912C168.625 26.208 167.953 27.12 166.609 27.648C165.265 28.152 163.441 28.404 161.137 28.404C158.857 28.404 157.033 28.092 155.665 27.468Z" fill="white"/>
<path d="M180.193 27.216C180.193 27.48 179.521 27.696 178.178 27.864C176.834 28.008 175.43 28.08 173.965 28.08C172.501 28.08 171.554 28.02 171.122 27.9C170.689 27.756 170.473 27.528 170.473 27.216V2.304C170.473 1.776 171.146 1.26 172.49 0.755999C173.857 0.252 175.322 0 176.882 0C179.089 0 180.193 0.552 180.193 1.656V15.12H180.661C181.813 9.624 182.665 6.876 183.217 6.876C184.609 6.876 186.29 7.2 188.258 7.848C190.226 8.496 191.21 9.216 191.21 10.008C191.21 10.584 190.729 11.688 189.77 13.32C188.809 14.952 187.814 16.284 186.782 17.316C190.214 21.42 191.93 23.856 191.93 24.624C191.93 25.344 190.838 26.22 188.654 27.252C186.469 28.284 184.934 28.8 184.046 28.8C183.613 28.8 183.158 28.284 182.678 27.252C182.198 26.196 181.682 24.624 181.13 22.536L180.193 23.652V27.216Z" fill="white"/>
<path fill-rule="evenodd" clip-rule="evenodd" d="M134.296 28.404C132.112 28.404 130.396 27.888 129.148 26.856C128.644 26.424 128.2 25.788 127.816 24.948C127.456 24.108 127.276 23.124 127.276 21.996C127.276 20.868 127.54 19.884 128.068 19.044C128.62 18.204 129.28 17.556 130.048 17.1C130.816 16.644 131.716 16.272 132.748 15.984C134.308 15.576 136.024 15.372 137.896 15.372H139.084C139.084 14.388 138.748 13.692 138.076 13.284C137.788 13.116 137.344 13.032 136.744 13.032C136.168 13.032 135.46 13.188 134.62 13.5C133.804 13.812 133.12 14.136 132.568 14.472C132.016 14.784 131.644 14.94 131.452 14.94C131.02 14.94 130.432 14.376 129.688 13.248C128.944 12.096 128.572 11.052 128.572 10.116C128.572 9.804 129.016 9.396 129.904 8.892C130.792 8.388 132.04 7.932 133.648 7.524C135.28 7.092 136.864 6.876 138.4 6.876C139.936 6.876 141.256 7.008 142.36 7.272C143.488 7.512 144.4 7.812 145.096 8.172C145.816 8.532 146.416 9.012 146.896 9.612C147.4 10.212 147.772 10.752 148.012 11.232C148.276 11.712 148.468 12.336 148.588 13.104C148.756 13.992 148.84 15.084 148.84 16.38V27.216C148.84 27.48 148.192 27.696 146.896 27.864C145.624 28.008 144.352 28.08 143.08 28.08C141.832 28.08 141.016 28.044 140.632 27.972C140.272 27.9 140.056 27.816 139.984 27.72C139.912 27.624 139.852 27.456 139.804 27.216L139.516 25.164H139.228C138.628 27.324 136.984 28.404 134.296 28.404ZM134 18.543C134.02 18.1943 134.16 18.0465 134.5 18H139.5C139.941 18.0367 139.988 18.1864 140 18.5V23.5C140.003 23.8833 139.904 24.0027 139.5 24H134.5C134.135 23.9989 134.003 23.9159 134 23.5V18.543Z" fill="white"/>
<path fill-rule="evenodd" clip-rule="evenodd" d="M134.296 28.404C132.112 28.404 130.396 27.888 129.148 26.856C128.644 26.424 128.2 25.788 127.816 24.948C127.456 24.108 127.276 23.124 127.276 21.996C127.276 20.868 127.54 19.884 128.068 19.044C128.62 18.204 129.28 17.556 130.048 17.1C130.816 16.644 131.716 16.272 132.748 15.984C134.308 15.576 136.024 15.372 137.896 15.372H139.084C139.084 14.388 138.748 13.692 138.076 13.284C137.788 13.116 137.344 13.032 136.744 13.032C136.168 13.032 135.46 13.188 134.62 13.5C133.804 13.812 133.12 14.136 132.568 14.472C132.016 14.784 131.644 14.94 131.452 14.94C131.02 14.94 130.432 14.376 129.688 13.248C128.944 12.096 128.572 11.052 128.572 10.116C128.572 9.804 129.016 9.396 129.904 8.892C130.792 8.388 132.04 7.932 133.648 7.524C135.28 7.092 136.864 6.876 138.4 6.876C139.936 6.876 141.256 7.008 142.36 7.272C143.488 7.512 144.4 7.812 145.096 8.172C145.816 8.532 146.416 9.012 146.896 9.612C147.4 10.212 147.772 10.752 148.012 11.232C148.276 11.712 148.468 12.336 148.588 13.104C148.756 13.992 148.84 15.084 148.84 16.38V27.216C148.84 27.48 148.192 27.696 146.896 27.864C145.624 28.008 144.352 28.08 143.08 28.08C141.832 28.08 141.016 28.044 140.632 27.972C140.272 27.9 140.056 27.816 139.984 27.72C139.912 27.624 139.852 27.456 139.804 27.216L139.516 25.164H139.228C138.628 27.324 136.984 28.404 134.296 28.404ZM134 18.543C134.02 18.1943 134.16 18.0465 134.5 18H139.5C139.941 18.0367 139.988 18.1864 140 18.5V23.5C140.003 23.8833 139.904 24.0027 139.5 24H134.5C134.135 23.9989 134.003 23.9159 134 23.5V18.543Z" fill="white"/>
<path d="M136.85 23C135.544 21.3177 134.697 20.4453 133 19L133.55 16.5L136.85 20C139.328 16.1383 140.674 14.4038 142.9 13L144 16C141.225 17.8623 139.655 19.6227 136.85 23Z" fill="#64C641"/>
</svg>
